<?xml version="1.0" encoding="UTF-8" standalone="no"?>
<svg xmlns="http://www.w3.org/2000/svg" width="48" height="48" viewBox="0 0 48 48">
  <!-- Background gradient -->
  <defs>
    <linearGradient id="cyber-gradient" x1="0%" y1="0%" x2="100%" y2="100%">
      <stop offset="0%" stop-color="#10102c" />
      <stop offset="100%" stop-color="#0a0a1a" />
    </linearGradient>
    <linearGradient id="neon-gradient" x1="0%" y1="0%" x2="100%" y2="100%">
      <stop offset="0%" stop-color="#00f7ff" />
      <stop offset="100%" stop-color="#e100ff" />
    </linearGradient>
    <!-- Glow filter -->
    <filter id="neon-glow" x="-50%" y="-50%" width="200%" height="200%">
      <feGaussianBlur in="SourceGraphic" stdDeviation="2" result="blur" />
      <feColorMatrix in="blur" mode="matrix" values="0 0 0 0 0 0 0 0 0 0.97 0 0 0 0 1 0 0 0 1 0" result="glow" />
      <feBlend in="SourceGraphic" in2="glow" mode="screen" />
    </filter>
    <clipPath id="circleClip">
      <circle cx="24" cy="24" r="24" />
    </clipPath>
  </defs>

  <!-- Base circle -->
  <circle cx="24" cy="24" r="24" fill="url(#cyber-gradient)" />
  
  <!-- Grid pattern -->
  <g clip-path="url(#circleClip)" opacity="0.3">
    <path d="M0 0 L48 0 L48 48 L0 48 Z" fill="none" stroke="#00f7ff" stroke-width="0.5" />
    <path d="M0 6 L48 6" stroke="#00f7ff" stroke-width="0.2" />
    <path d="M0 12 L48 12" stroke="#00f7ff" stroke-width="0.2" />
    <path d="M0 18 L48 18" stroke="#00f7ff" stroke-width="0.2" />
    <path d="M0 24 L48 24" stroke="#00f7ff" stroke-width="0.2" />
    <path d="M0 30 L48 30" stroke="#00f7ff" stroke-width="0.2" />
    <path d="M0 36 L48 36" stroke="#00f7ff" stroke-width="0.2" />
    <path d="M0 42 L48 42" stroke="#00f7ff" stroke-width="0.2" />
    
    <path d="M6 0 L6 48" stroke="#00f7ff" stroke-width="0.2" />
    <path d="M12 0 L12 48" stroke="#00f7ff" stroke-width="0.2" />
    <path d="M18 0 L18 48" stroke="#00f7ff" stroke-width="0.2" />
    <path d="M24 0 L24 48" stroke="#00f7ff" stroke-width="0.2" />
    <path d="M30 0 L30 48" stroke="#00f7ff" stroke-width="0.2" />
    <path d="M36 0 L36 48" stroke="#00f7ff" stroke-width="0.2" />
    <path d="M42 0 L42 48" stroke="#00f7ff" stroke-width="0.2" />
  </g>
  
  <!-- Geometric avatar -->
  <circle cx="24" cy="16" r="6" fill="#00f7ff" opacity="0.7" />
  <path d="M12 36 C12 25 36 25 36 36" stroke="#00f7ff" stroke-width="2" fill="none" />
  
  <!-- Circuitry elements -->
  <path d="M18 16 L12 16 L12 20 L8 20" stroke="#00f7ff" stroke-width="1" fill="none" opacity="0.7" />
  <path d="M30 16 L36 16 L36 20 L40 20" stroke="#00f7ff" stroke-width="1" fill="none" opacity="0.7" />
  <circle cx="8" cy="20" r="1.5" fill="#e100ff" filter="url(#neon-glow)" />
  <circle cx="40" cy="20" r="1.5" fill="#e100ff" filter="url(#neon-glow)" />
  
  <!-- Border -->
  <circle cx="24" cy="24" r="23" stroke="url(#neon-gradient)" stroke-width="1" fill="none" />
</svg>